<?xml version="1.0" standalone="no"?>
<!DOCTYPE svg PUBLIC "-//W3C//DTD SVG 20010904//EN"
 "http://www.w3.org/TR/2001/REC-SVG-20010904/DTD/svg10.dtd">
<svg version="1.0" xmlns="http://www.w3.org/2000/svg"
 width="1024.000000pt" height="1024.000000pt" viewBox="0 0 1024.000000 1024.000000"
 preserveAspectRatio="xMidYMid meet">
<metadata>
Created by potrace 1.14, written by Peter Selinger 2001-2017
</metadata>
<g transform="translate(0.000000,1024.000000) scale(0.100000,-0.100000)"
fill="#000000" stroke="none">
<path d="M4810 9474 c-776 -66 -1460 -299 -2068 -706 -1493 -998 -2201 -2791
-1796 -4547 70 -305 192 -638 344 -940 599 -1193 1732 -2045 3040 -2285 293
-53 389 -61 785 -61 407 0 527 11 850 75 1496 300 2732 1399 3214 2860 198
600 259 1292 170 1929 -160 1142 -769 2163 -1703 2853 -592 437 -1280 709
-2036 804 -118 15 -687 28 -800 18z m-1329 -2056 c76 -103 246 -276 369 -375
604 -486 1558 -876 2730 -1117 754 -156 1482 -233 2425 -259 l80 -2 7 -50 c15
-104 21 -570 9 -716 -103 -1233 -737 -2322 -1751 -3008 -1051 -711 -2354 -880
-3560 -462 -1011 350 -1870 1132 -2315 2109 -191 420 -322 920 -350 1337 -3
50 -8 113 -11 141 l-5 52 83 11 c211 30 400 91 609 197 369 187 714 496 1011
904 256 354 479 812 584 1202 16 60 30 108 30 108 1 0 25 -33 55 -72z"/>
<path d="M3651 5226 c-104 -34 -193 -121 -257 -251 -64 -130 -78 -206 -78
-415 0 -160 3 -196 22 -264 31 -113 87 -219 150 -287 152 -165 359 -166 510
-5 69 75 112 152 148 271 26 84 28 102 28 280 1 221 -9 274 -80 422 -78 164
-191 252 -333 259 -40 2 -84 -2 -110 -10z"/>
<path d="M6383 5226 c-126 -41 -239 -173 -297 -349 -52 -155 -59 -409 -17
-572 48 -183 148 -328 269 -387 58 -29 76 -33 142 -32 95 1 170 34 244 108
261 261 253 909 -14 1150 -91 82 -224 116 -327 82z"/>
<path d="M4868 3665 c-521 -74 -949 -373 -1113 -776 -47 -117 -65 -216 -65
-359 0 -146 18 -242 69 -366 200 -488 779 -806 1420 -781 263 10 465 60 681
169 157 78 274 163 381 275 134 140 228 307 271 479 31 126 31 322 0 448 -26
103 -90 244 -153 337 -181 268 -517 476 -893 555 -153 32 -444 41 -598 19z
m492 -1615 c134 -33 256 -97 324 -171 31 -33 55 -66 53 -72 -5 -15 -118 -61
-223 -92 -158 -46 -261 -58 -449 -52 -216 7 -356 37 -526 113 l-59 27 17 28
c63 106 257 208 455 238 97 15 309 5 408 -19z"/>
</g>
</svg>
