<?xml version="1.0" encoding="UTF-8"?>
<svg id="_レイヤー_1" data-name="レイヤー 1" xmlns="http://www.w3.org/2000/svg" width="1024" height="1024" viewBox="0 0 1024 1024">
  <defs>
    <style>
      .cls-1 {
        fill: #000;
      }

      .cls-1, .cls-2 {
        stroke-width: 0px;
      }

      .cls-3 {
        fill: none;
        stroke: #000;
        stroke-linecap: round;
        stroke-linejoin: round;
        stroke-width: 28px;
      }

      .cls-2 {
        fill: #fff;
      }
    </style>
  </defs>
  <rect class="cls-2" width="1024" height="1024"/>
  <g>
    <g>
      <path class="cls-1" d="M511.18,89.59c208.17,0,380.46,153.64,409.63,353.72-325.39,0-584.32-112.52-584.32-230.22,0,117.7-107.04,290.5-239.32,290.5,0-228.65,185.36-414,414.01-414Z"/>
      <path class="cls-1" d="M511.18,669.74c71.11,0,128.75,45.32,128.75,101.23,0,32.61-19.61,61.63-50.07,80.13,0-27.06-35.19-48.96-78.68-48.96s-78.69,21.9-78.69,48.96c-30.46-18.51-50.07-47.52-50.07-80.13,0-55.91,57.64-101.23,128.76-101.23Z"/>
      <path class="cls-1" d="M647.78,513.93c16.56,0,29.99,24.14,29.99,53.92s-13.43,53.91-29.99,53.91-30-24.14-30-53.91,13.43-53.92,30-53.92Z"/>
      <path class="cls-1" d="M374.57,513.93c16.57,0,30,24.14,30,53.92s-13.43,53.91-30,53.91-29.99-24.14-29.99-53.91,13.43-53.92,29.99-53.92Z"/>
    </g>
    <g>
      <path class="cls-3" d="M920.81,443.31c2.88,19.68,4.37,39.8,4.37,60.28,0,228.64-185.36,414-414,414S97.17,732.23,97.17,503.59,282.53,89.59,511.18,89.59c208.17,0,380.46,153.64,409.63,353.72Z"/>
      <path class="cls-3" d="M336.49,213.09c0,117.7-107.04,290.5-239.32,290.5"/>
      <path class="cls-3" d="M336.49,213.09c0,117.7,258.93,230.22,584.32,230.22"/>
      <path class="cls-3" d="M404.57,567.85c0,29.77-13.43,53.91-30,53.91s-29.99-24.14-29.99-53.91,13.43-53.92,29.99-53.92,30,24.14,30,53.92Z"/>
      <path class="cls-3" d="M677.77,567.85c0,29.77-13.43,53.91-29.99,53.91s-30-24.14-30-53.91,13.43-53.92,30-53.92,29.99,24.14,29.99,53.92Z"/>
      <path class="cls-3" d="M432.49,851.1c-30.46-18.51-50.07-47.52-50.07-80.13,0-55.91,57.64-101.23,128.76-101.23s128.75,45.32,128.75,101.23c0,32.61-19.61,61.63-50.07,80.13-21.76,13.24-49.05,21.11-78.68,21.11s-56.93-7.87-78.69-21.11Z"/>
      <path class="cls-3" d="M432.49,851.1c0-27.06,35.19-48.96,78.69-48.96"/>
      <path class="cls-3" d="M589.86,851.1c0-27.06-35.19-48.96-78.68-48.96"/>
    </g>
  </g>
</svg>