<?xml version="1.0" encoding="UTF-8"?>
<svg id="_レイヤー_1" data-name="レイヤー 1" xmlns="http://www.w3.org/2000/svg" width="1366" height="768" viewBox="0 0 1366 768">
  <defs>
    <style>
      .cls-1 {
        fill: none;
        stroke: #000;
        stroke-linecap: round;
        stroke-linejoin: round;
        stroke-width: 8px;
      }

      .cls-2 {
        fill: #000;
      }

      .cls-2, .cls-3 {
        stroke-width: 0px;
      }

      .cls-3 {
        fill: #fff;
      }
    </style>
  </defs>
  <rect class="cls-3" width="1366" height="768"/>
  <g>
    <path class="cls-2" d="M519.83,423.45h-66.5l4.53,49.5h-27.58l-4.35-49.5h-72.17v-24.94h69.72l-2.83-34.95h-60.65v-24.75h58.38l-2.64-28.53h27.58l2.27,28.53h66.5v24.75h-64.05l3.02,34.95h68.77v24.94Z"/>
    <path class="cls-2" d="M632.06,400.4c-30.23-4.03-56.74-6.36-79.54-6.99v-25.13c27.08.88,53.59,3.15,79.54,6.8v25.32ZM633.95,350.14c-31.11-4.03-57.69-6.42-79.73-7.18v-24.94c26.45.88,53.02,3.09,79.73,6.61v25.51ZM704.61,344.29c-3.4,44.09-18.26,76.46-44.59,97.11-23.81,18.64-58.26,28.27-103.35,28.91v-26.45c38.79-1.26,67.32-9.19,85.59-23.81,19.14-15.37,30.48-40.62,34.01-75.76h28.34ZM681.94,335.6h-16.25v-27.02h16.25v27.02ZM705.93,335.6h-16.44v-27.02h16.44v27.02Z"/>
    <path class="cls-2" d="M876.91,316.33c-5.04,42.2-19.02,76.14-41.94,101.83-22.42,25.32-52.96,42.2-91.63,50.63v-26.64c60.84-17.25,95.47-59.2,103.91-125.83h29.66Z"/>
    <path class="cls-2" d="M1083.04,462.37h-159.46v-26.07h159.46v26.07ZM1066.98,351.47h-128.66v-26.07h128.66v26.07Z"/>
    <path class="cls-2" d="M1268,333.33c0,79.73-36.46,125.2-109.39,136.41v-25.13c26.7-5.41,46.7-16.25,59.99-32.5,13.29-16.25,20.24-38.92,20.88-68.01h-94.84v49.5h-27.02v-74.63h150.39v14.36Z"/>
  </g>
  <g>
    <g>
      <path class="cls-2" d="M199.69,282.1c51.21,0,93.59,37.79,100.77,87.01-80.04,0-143.73-27.68-143.73-56.63,0,28.95-26.33,71.46-58.87,71.46,0-56.24,45.6-101.84,101.84-101.84Z"/>
      <path class="cls-2" d="M233.29,386.49c4.07,0,7.38,5.94,7.38,13.26s-3.3,13.26-7.38,13.26-7.38-5.94-7.38-13.26,3.3-13.26,7.38-13.26Z"/>
      <path class="cls-2" d="M199.69,424.81c15.99,0,28.95,11.15,28.95,24.9,0,8.02-4.41,15.16-11.26,19.71,0-6.66-7.91-12.05-17.69-12.05s-17.69,5.39-17.69,12.05c-6.85-4.55-11.26-11.69-11.26-19.71,0-13.75,12.96-24.9,28.95-24.9Z"/>
      <path class="cls-2" d="M166.09,386.49c4.08,0,7.38,5.94,7.38,13.26s-3.3,13.26-7.38,13.26-7.38-5.94-7.38-13.26,3.3-13.26,7.38-13.26Z"/>
    </g>
    <g>
      <path class="cls-1" d="M300.45,369.11c.71,4.84,1.07,9.79,1.07,14.83,0,56.24-45.6,101.84-101.84,101.84s-101.84-45.59-101.84-101.84,45.6-101.84,101.84-101.84c51.21,0,93.59,37.79,100.77,87.01Z"/>
      <path class="cls-1" d="M156.72,312.48c0,28.95-26.33,71.46-58.87,71.46"/>
      <path class="cls-1" d="M156.72,312.48c0,28.95,63.69,56.63,143.73,56.63"/>
      <path class="cls-1" d="M173.47,399.75c0,7.32-3.3,13.26-7.38,13.26s-7.38-5.94-7.38-13.26,3.3-13.26,7.38-13.26,7.38,5.94,7.38,13.26Z"/>
      <path class="cls-1" d="M240.67,399.75c0,7.32-3.3,13.26-7.38,13.26s-7.38-5.94-7.38-13.26,3.3-13.26,7.38-13.26,7.38,5.94,7.38,13.26Z"/>
      <path class="cls-1" d="M182,469.43c-6.85-4.55-11.26-11.69-11.26-19.71,0-13.75,12.96-24.9,28.95-24.9s28.95,11.15,28.95,24.9c0,8.02-4.41,15.16-11.26,19.71-4.89,3.25-11.03,5.19-17.69,5.19s-12.8-1.94-17.69-5.19Z"/>
      <path class="cls-1" d="M182,469.43c0-6.66,7.91-12.05,17.69-12.05"/>
      <path class="cls-1" d="M217.38,469.43c0-6.66-7.91-12.05-17.69-12.05"/>
    </g>
  </g>
</svg>