<?xml version="1.0" encoding="UTF-8"?>
<svg id="_レイヤー_1" data-name="レイヤー 1" xmlns="http://www.w3.org/2000/svg" width="1024" height="1024" viewBox="0 0 1024 1024">
  <defs>
    <style>
      .cls-1 {
        fill: none;
        stroke: #000;
        stroke-linecap: round;
        stroke-linejoin: round;
        stroke-width: 20px;
      }

      .cls-2 {
        fill: #000;
      }

      .cls-2, .cls-3 {
        stroke-width: 0px;
      }

      .cls-3 {
        fill: #fff;
      }
    </style>
  </defs>
  <rect class="cls-3" width="1024" height="1024"/>
  <g>
    <g>
      <path class="cls-2" d="M512,105.42c149.41,0,273.07,110.27,294.01,253.88-233.54,0-419.39-80.76-419.39-165.24,0,84.48-76.83,208.5-171.77,208.5,0-164.11,133.04-297.14,297.15-297.14Z"/>
      <path class="cls-2" d="M610.05,409.98c11.89,0,21.52,17.33,21.52,38.7s-9.64,38.69-21.52,38.69-21.53-17.33-21.53-38.69,9.64-38.7,21.53-38.7Z"/>
      <path class="cls-2" d="M460.38,651.99c-19.98-13.29-32.85-34.11-32.85-57.52,0-40.13,37.82-72.66,84.47-72.66s84.46,32.53,84.46,72.66c0,23.41-12.87,44.23-32.85,57.52,0-19.43-23.08-35.15-51.61-35.15s-51.62,15.72-51.62,35.15Z"/>
      <path class="cls-2" d="M413.95,409.98c11.89,0,21.53,17.33,21.53,38.7s-9.64,38.69-21.53,38.69-21.52-17.33-21.52-38.69,9.64-38.7,21.52-38.7Z"/>
    </g>
    <g>
      <path class="cls-1" d="M806.01,359.29c2.07,14.12,3.14,28.57,3.14,43.26,0,164.1-133.04,297.14-297.14,297.14s-297.15-133.04-297.15-297.14S347.89,105.42,512,105.42c149.41,0,273.07,110.27,294.01,253.88Z"/>
      <path class="cls-1" d="M386.62,194.06c0,84.48-76.83,208.5-171.77,208.5"/>
      <path class="cls-1" d="M386.62,194.06c0,84.48,185.84,165.24,419.39,165.24"/>
      <path class="cls-1" d="M435.49,448.68c0,21.37-9.64,38.69-21.53,38.69s-21.52-17.33-21.52-38.69,9.64-38.7,21.52-38.7,21.53,17.33,21.53,38.7Z"/>
      <path class="cls-1" d="M631.57,448.68c0,21.37-9.64,38.69-21.52,38.69s-21.53-17.33-21.53-38.69,9.64-38.7,21.53-38.7,21.52,17.33,21.52,38.7Z"/>
      <path class="cls-1" d="M460.38,651.99c-19.98-13.29-32.85-34.11-32.85-57.52,0-40.13,37.82-72.66,84.47-72.66s84.46,32.53,84.46,72.66c0,23.41-12.87,44.23-32.85,57.52-14.27,9.5-32.18,15.14-51.61,15.14s-37.35-5.65-51.62-15.14Z"/>
      <path class="cls-1" d="M460.38,651.99c0-19.43,23.08-35.15,51.62-35.15"/>
      <path class="cls-1" d="M563.62,651.99c0-19.43-23.08-35.15-51.61-35.15"/>
    </g>
  </g>
  <g>
    <path class="cls-2" d="M244.15,882.5h-60.48l4.12,45.01h-25.08l-3.95-45.01h-65.63v-22.68h63.4l-2.58-31.79h-55.15v-22.51h53.09l-2.41-25.94h25.08l2.06,25.94h60.48v22.51h-58.24l2.75,31.79h62.54v22.68Z"/>
    <path class="cls-2" d="M346.2,861.54c-27.49-3.67-51.6-5.78-72.33-6.36v-22.85c24.63.8,48.74,2.86,72.33,6.18v23.02ZM347.92,815.84c-28.29-3.67-52.46-5.84-72.5-6.53v-22.68c24.05.8,48.22,2.81,72.5,6.01v23.19ZM412.18,810.51c-3.09,40.09-16.61,69.53-40.55,88.31-21.65,16.95-52.98,25.71-93.98,26.29v-24.05c35.28-1.14,61.22-8.36,77.83-21.65,17.41-13.97,27.72-36.94,30.93-68.9h25.77ZM391.56,802.61h-14.78v-24.57h14.78v24.57ZM413.38,802.61h-14.95v-24.57h14.95v24.57Z"/>
    <path class="cls-2" d="M568.87,785.09c-4.58,38.37-17.3,69.24-38.14,92.61-20.39,23.02-48.17,38.37-83.33,46.05v-24.23c55.32-15.69,86.82-53.83,94.5-114.43h26.97Z"/>
    <path class="cls-2" d="M756.32,917.9h-145.01v-23.71h145.01v23.71ZM741.71,817.04h-117v-23.71h117v23.71Z"/>
    <path class="cls-2" d="M924.52,800.55c0,72.5-33.16,113.85-99.48,124.05v-22.85c24.28-4.92,42.46-14.78,54.55-29.55,12.08-14.78,18.41-35.39,18.98-61.85h-86.25v45.01h-24.57v-67.87h136.76v13.06Z"/>
  </g>
</svg>